<?xml version="1.0" encoding="UTF-8" standalone="no"?>
<!DOCTYPE svg PUBLIC "-//W3C//DTD SVG 1.1//EN" "http://www.w3.org/Graphics/SVG/1.1/DTD/svg11.dtd">
<svg t="1690701120019" class="icon" viewBox="0 0 1024 1024" version="1.1" xmlns="http://www.w3.org/2000/svg" p-id="24026" width="56" height="56"><path d="M313.941333 431.914667a198.058667 198.058667 0 0 0 396.032 0C709.973333 324.522667 511.914667 42.666667 511.914667 42.666667s-197.973333 281.813333-197.973334 389.205333z m-104.533333 549.12a160.384 160.384 0 0 0 166.954667-153.173334c0-84.736-166.954667-305.749333-166.954667-305.749333S42.453333 743.808 42.453333 827.904a159.658667 159.658667 0 0 0 166.912 153.173333h0.042667z m615.637333-458.538667s-156.458667 211.498667-156.458666 291.84a156.970667 156.970667 0 0 0 312.917333 0c0-81.152-156.458667-291.84-156.458667-291.84z" fill="#1296db" p-id="24027"></path></svg>
