<?xml version="1.0" encoding="UTF-8" standalone="no"?>
<!DOCTYPE svg PUBLIC "-//W3C//DTD SVG 1.1//EN" "http://www.w3.org/Graphics/SVG/1.1/DTD/svg11.dtd">
<svg t="1690699414619" class="icon" viewBox="0 0 1024 1024" version="1.1" xmlns="http://www.w3.org/2000/svg" p-id="3058" width="56" height="56"><path d="M90.24 748h474.24a26.4 26.4 0 0 0 23.36-14.24 26.72 26.72 0 0 0-1.92-27.36L465.6 537.92H512a26.4 26.4 0 0 0 23.2-13.76 26.88 26.88 0 0 0-1.28-27.04L421.92 328h38.4a26.24 26.24 0 0 0 23.52-14.56 26.72 26.72 0 0 0-3.84-27.52L349.28 74.24a27.2 27.2 0 0 0-42.08 0L176 285.92a26.72 26.72 0 0 0-2.56 27.52A26.24 26.24 0 0 0 196.96 328h38.56l-112 169.12a26.08 26.08 0 0 0 20.48 40.8h46.56L68.96 706.4A26.24 26.24 0 0 0 90.24 748z m843.52 159.2H748.32V800H643.2v107.2H380.8V800H275.68v107.2H90.24a26.24 26.24 0 1 0 0 52.48h843.52a26.24 26.24 0 1 0 0-52.48zM564.48 328h38.4L544 417.12 578.08 468a79.04 79.04 0 0 1-20.8 108l71.36 99.84a78.08 78.08 0 0 1 9.28 72h295.84a26.24 26.24 0 0 0 21.28-41.6L832.96 537.92H880a26.08 26.08 0 0 0 21.76-40.8L789.76 328h38.56a26.24 26.24 0 0 0 23.52-14.56 26.72 26.72 0 0 0-3.84-27.52L716.8 74.24a27.2 27.2 0 0 0-42.08 0L544 285.92a26.72 26.72 0 0 0-2.56 27.52A26.24 26.24 0 0 0 564.48 328z" fill="#13bd1e" p-id="3059"></path></svg>